<?xml version="1.0" encoding="utf-8"?>
<!-- Generator: Adobe Illustrator 15.0.2, SVG Export Plug-In . SVG Version: 6.00 Build 0)  -->
<!DOCTYPE svg [
	<!ENTITY ns_flows "http://ns.adobe.com/Flows/1.0/">
	<!ENTITY ns_extend "http://ns.adobe.com/Extensibility/1.0/">
	<!ENTITY ns_ai "http://ns.adobe.com/AdobeIllustrator/10.0/">
	<!ENTITY ns_graphs "http://ns.adobe.com/Graphs/1.0/">
]>
<svg version="1.2" baseProfile="tiny" xmlns:x="&ns_extend;" xmlns:i="&ns_ai;" xmlns:graph="&ns_graphs;"
	 xmlns="http://www.w3.org/2000/svg" xmlns:xlink="http://www.w3.org/1999/xlink" xmlns:a="http://ns.adobe.com/AdobeSVGViewerExtensions/3.0/"
	 x="0px" y="0px" width="500px" height="480px" viewBox="0 0 500 480" overflow="inherit" xml:space="preserve">
<g id="insta">
	<path d="M376,123c-21.7,0-103.2,3.6-121-0c-9-2.1-16-11.6-26-16c-28.2-13.4-63.9-9.5-87,7c-3.8,2.7-7.4,7.8-12,9
		c-15.9,4-102.9,0-124,0c0-71,10.8-83.7,36.8-99c0,25,0.3,75,0.3,75h19.8c0,0,0-58.3,0-88c6-3,12.5-5.5,21-6c0,31.3,0,94,0,94h19.8
		c0,0-0-0-0-95.7C376,3.8,375.5,3.8,376,123.8z M322.5,100.5c6.7-4.7,6.4-42.7-0.3-49.5c-5.3-5.4-37.5-4.7-43.7,0.5
		c-9,7.5-5.5,44.5-1,48C282,106.5,314,106.5,322.5,100.5z"/>
	<path d="M376,154c0,0-0.1,108.8-0.1,147.9c0,38-39.7,71.8-84.3,71.6c-34.9-0.2-166.3,0.7-200.3,0.5C50.2,374.3,5,340.5,5.5,303
		c0.5-37.6,0-148.2,0-148.2s71.3-0.2,106-0.2c-18.1,60,19.4,110.8,70,116c60.6,6.3,113.7-48.9,92-116
		C308,154,376,154,376,154z"/>
	<path d="M184.5,134.5c62.9-9.5,79,76.8,29,98c-30.9,13.1-66.7-8.2-72-37C135.6,163.5,157.6,138.6,184.5,134.5z"/>
</g>
<g id="atom">
	<path d="M430,135C427,297.2,292.8,425.8,131.2,422.3l-1.2,53.3c191,4.2,349.7-147.8,353.8-338.7L430.6,135.7z"/>
	<path fill="#FFFFFF" d="M324,133.4c-2.2,102.8-87.7,184.6-190.6,182.4l-1.2,53.3c132.2,2.9,242.1-102.3,245-234.5L324,133.4z"/>
</g>
</svg>
